<svg xmlns="http://www.w3.org/2000/svg" width="100" height="100" viewBox="0 0 100 100" fill="none">
  <circle cx="50" cy="50" r="50" fill="#8247E5"/>
  <path d="M65.5 39.5C63.9 38.6 61.9 38.6 60.3 39.5L51.5 44.5L45.5 48L36.7 53C35.1 53.9 33.1 53.9 31.5 53L24.7 49C23.1 48.1 22 46.4 22 44.5V36.5C22 34.6 23.1 32.9 24.7 32L31.5 28C33.1 27.1 35.1 27.1 36.7 28L43.5 32C45.1 32.9 46.2 34.6 46.2 36.5V41.5L52.2 38V33C52.2 31.1 51.1 29.4 49.5 28.5L36.7 21C35.1 20.1 33.1 20.1 31.5 21L18.5 28.5C16.9 29.4 15.8 31.1 15.8 33V48C15.8 49.9 16.9 51.6 18.5 52.5L31.5 60C33.1 60.9 35.1 60.9 36.7 60L45.5 55L51.5 51.5L60.3 46.5C61.9 45.6 63.9 45.6 65.5 46.5L72.3 50.5C73.9 51.4 75 53.1 75 55V63C75 64.9 73.9 66.6 72.3 67.5L65.5 71.5C63.9 72.4 61.9 72.4 60.3 71.5L53.5 67.5C51.9 66.6 50.8 64.9 50.8 63V58L44.8 61.5V66.5C44.8 68.4 45.9 70.1 47.5 71L60.3 78.5C61.9 79.4 63.9 79.4 65.5 78.5L78.3 71C79.9 70.1 81 68.4 81 66.5V51.5C81 49.6 79.9 47.9 78.3 47L65.5 39.5Z" fill="white"/>
</svg>