<?xml version="1.0" encoding="UTF-8"?><svg id="Ebene_2" xmlns="http://www.w3.org/2000/svg" viewBox="0 0 1152.12 321.78"><defs><style>.cls-1{fill:#220f1c;}.cls-1,.cls-2,.cls-3{stroke-width:0px;}.cls-2{fill:#fff;}.cls-3{fill:#ff435a;}</style></defs><g id="Ebene_1-2"><path class="cls-1" d="M1147.24,197.19c-3.24-8.57-7.86-16.31-13.76-23.03-5.89-6.71-13-12.31-21.14-16.67-8.13-4.35-17.07-7.19-26.57-8.46l-.27-.03c-4.83-.59-9.92-1.12-15.14-1.59-6.06-.54-11.99-.68-17.63-.4l-39.44,2.55-.28.02c-6.12.47-11.7,2.54-16.23,5.93-.86-.43-1.72-.86-2.61-1.26-7.93-3.54-16.51-5.87-25.53-6.93-8.43-.99-16.49-1.05-23.96-.18l-51.82,5.53c-5.92.61-11.15,2.67-15.41,5.81-5.08-3.44-11.19-5.39-17.86-5.43l-63.54-.84h-.31c-2.34,0-4.59.23-6.75.64-.44-.54-.89-1.07-1.38-1.58-5.62-5.91-13.59-9.05-22.43-8.83l-18.36.97c.09-.97.15-1.96.16-2.97l.04-1.74c3.8-.82,7.44-1.75,10.87-2.8,9.25-2.81,17.37-7.23,24.11-13.11,7.19-6.27,12.66-14.32,16.27-23.93,3.26-8.69,4.85-18.78,4.85-30.83,0-13.01-3.09-24.21-9.18-33.3-5.62-8.37-12.97-15.02-21.87-19.77-7.83-4.17-16.59-7-26.04-8.4-7.92-1.17-15.9-1.77-23.73-1.77-4.06,0-8.59.19-13.48.58-4.33.34-8.95.75-13.73,1.22-4.67.46-9.42.99-14.15,1.58-4.58.57-8.85,1.14-12.72,1.69-.19.02-.38.05-.57.08-4.33-2.44-9.44-3.8-15.07-3.8h-1.57l-81.63,5.09c-5.4.32-10.29,1.9-14.44,4.44-.42-.24-.82-.49-1.25-.72-7.83-4.17-16.59-7-26.04-8.4-7.92-1.17-15.9-1.77-23.73-1.77-4.06,0-8.59.19-13.48.58-4.33.34-8.95.75-13.73,1.22-4.66.46-9.42.99-14.15,1.58-4.56.57-8.84,1.14-12.72,1.69-12.44,1.47-21.83,9.25-25.45,20.22-8.87-6.99-19.39-12.86-31.32-17.39-29.29-11.15-64.63-14.98-105.06-11.38-25.79,2.3-46.25,6.13-64.4,12.04l-17.89,5.83c-2.95.09-5.73.25-8.26.42l-1.72.14c-.49.04-.98.08-1.47.12-25.87,2.01-48.77,13.93-62.89,32.73-2.66,3.56-4.71,7.06-6.3,10.07-2.82.87-5.46,1.87-7.98,3-14.46,6.46-26.19,17.84-34.4,32.88l-5.93.71c-11.59,1.38-21.38,4.61-30,9.89-10.47,6.47-19.67,15.68-28.98,28.99l-.06.08c-3.56,5.15-6.6,10.39-9.01,15.55-23.48,50.08,3.99,106.43,39.42,137.58,15.82,13.95,40.71,30.44,69.96,30.44.43,0,.87,0,1.3-.01,16.69-.25,32.34-6.95,44.06-18.86l.08-.09c1.76-1.8,3.25-3.61,4.55-5.31.3.12.61.23.91.35,22.59,8.44,50.11,7.82,70.09-1.57,8.82-4.13,16.31-9.83,22.36-16.91l8.03-1.11c.29.82.6,1.64.93,2.44l.08.19c5.82,13.57,17.83,24.03,34.78,30.28,10.23,3.75,21.21,5.62,32.36,5.62,14.16,0,28.57-3.01,42.03-8.97l.13-.06c5.95-2.68,11.65-5.89,16.93-9.55l.03-.02c22.24-15.45,35.76-39.35,37.22-65.1l9.59,54.42.12.64c3.16,15.4,15.3,25.35,30.94,25.35l25.36-.17c11.65-.03,21.91-5.52,28.26-14.92l2.26,2.75c7.13,8.78,17.17,13.54,28.47,13.54.64,0,1.28-.01,1.92-.04l18.98-.83c6.6-.22,12.56-2.26,17.42-5.73,4.93,3.47,10.98,5.36,17.5,5.4l41.79.67h.38c3.45,0,6.76-.51,9.86-1.49,4.29,2.26,9.29,3.52,14.75,3.51.29,0,.59,0,.89-.01l85.27-4.39c2.36-.09,4.65-.42,6.85-.97,2.93,1.01,6.37,1.66,10.35,1.66l29.97-.34c9.12-.04,17.16-3.52,22.94-9.51,5.86,6.76,14.38,10.69,24.06,10.69.3,0,.61,0,.91-.01l26.62-1.01c2.15-.06,4.11-.32,5.94-.71,4.95,2.62,10.73,3.79,16.83,3.35l27.06-1.85h.16c5.83-.45,11.05-2.26,15.37-5.14,4.09,3.9,9.06,6.54,14.45,7.6,1.61.32,3.47.54,5.53.54,4.95,0,11.04-1.28,17.47-5.63l12.89-8.88c.8,1.1,1.67,2.15,2.63,3.13,5.52,5.66,13.27,8.78,21.83,8.78h26.27c12.59,0,24.58-1.7,35.63-5.06,11.87-3.61,22.4-9.21,31.31-16.67,9.22-7.71,16.51-17.4,21.66-28.8,5.07-11.22,7.64-24.1,7.64-38.31,0-9.65-1.64-18.9-4.88-27.5Z"/><path class="cls-3" d="M462.18,70.06c0-3.48-1.29-5.22-3.85-5.22h-1.09c-.39,0-.87.11-1.42.34l-2.35.67c-.56.23-1.03.34-1.42.34h-1.09c-2.57,0-3.91-1.74-4.02-5.22l-.67-20.21c-.11-4.6,2.07-7.13,6.54-7.58,3.91-.56,8.13-1.12,12.65-1.68,4.52-.56,9.05-1.07,13.58-1.52,4.52-.45,8.94-.84,13.24-1.18,4.3-.34,8.18-.51,11.65-.51,6.7,0,13.46.51,20.28,1.52,6.81,1.01,12.96,2.98,18.44,5.89,5.47,2.92,9.94,6.96,13.41,12.12,3.46,5.16,5.2,11.9,5.2,20.21,0,9.09-1.12,16.61-3.35,22.56-2.24,5.95-5.48,10.78-9.72,14.48-4.25,3.7-9.41,6.48-15.5,8.34-6.09,1.85-12.93,3.28-20.53,4.29-4.47.45-6.7,2.92-6.7,7.41l-.33,14.99c0,4.49-2.24,6.79-6.7,6.9l-30.17.84c-4.47.11-6.7-2.08-6.7-6.57l.67-71.23ZM505.26,81.34c0,3.93,1.51,5.89,4.52,5.89.45,0,1.12-.11,2.01-.34,1.68-.34,3.29-.81,4.86-1.43,1.56-.62,2.99-1.37,4.27-2.27,1.28-.9,2.29-2.05,3.02-3.45.73-1.4,1.09-3.06,1.09-4.97,0-4.71-1.23-7.86-3.69-9.43-2.46-1.57-5.36-2.36-8.72-2.36-4.92,0-7.37,2.47-7.37,7.41v10.94Z"/><path class="cls-3" d="M578.83,152.57c-2.01,0-3.44-.56-4.27-1.68-.84-1.12-1.26-2.64-1.26-4.55l1.34-76.45c0-1.01-.14-1.74-.42-2.19-.28-.45-.64-.73-1.09-.84-.45-.11-.98-.14-1.59-.08-.62.06-1.26.08-1.93.08-1.01,0-1.73-.34-2.18-1.01-.45-.67-.73-1.46-.84-2.36-.34-3.7-.73-7.49-1.17-11.37-.45-3.87-.67-7.66-.67-11.37s2.01-5.84,6.03-6.06l80.95-5.05h.84c4.02,0,6.03,2.13,6.03,6.4l.34,25.93c0,4.27-1.96,6.4-5.87,6.4-5.03,0-10.06-.19-15.08-.59-5.03-.39-10.06-.59-15.08-.59-4.14,0-6.2,2.13-6.2,6.4v4.55c0,1.57.17,2.98.5,4.21.34,1.24.98,2.25,1.93,3.03.95.79,2.43,1.18,4.44,1.18l20.61-.34c2.01,0,3.6.51,4.78,1.52,1.17,1.01,1.76,2.58,1.76,4.71,0,7.41-.08,12.83-.25,16.25-.17,3.43-1.09,5.67-2.77,6.74-1.68,1.07-4.44,1.43-8.3,1.09-3.86-.34-9.41-.51-16.68-.51-2.12,0-3.69.59-4.69,1.77s-1.51,2.78-1.51,4.8l.34,20.54c0,4.49-2.24,6.9-6.7,7.24-5.14.34-10.37.78-15.67,1.35-5.31.56-10.53.84-15.67.84Z"/><path class="cls-3" d="M680.56,70.06c0-3.48-1.29-5.22-3.85-5.22h-1.09c-.39,0-.87.11-1.42.34l-2.35.67c-.56.23-1.03.34-1.43.34h-1.09c-2.57,0-3.91-1.74-4.02-5.22l-.67-20.21c-.11-4.6,2.07-7.13,6.54-7.58,3.91-.56,8.13-1.12,12.65-1.68,4.52-.56,9.05-1.07,13.58-1.52,4.53-.45,8.94-.84,13.24-1.18,4.3-.34,8.18-.51,11.65-.51,6.7,0,13.46.51,20.28,1.52,6.81,1.01,12.96,2.98,18.44,5.89,5.47,2.92,9.94,6.96,13.41,12.12,3.46,5.16,5.2,11.9,5.2,20.21,0,9.09-1.12,16.61-3.35,22.56-2.24,5.95-5.48,10.78-9.72,14.48-4.25,3.7-9.41,6.48-15.5,8.34-6.09,1.85-12.93,3.28-20.53,4.29-4.47.45-6.7,2.92-6.7,7.41l-.34,14.99c0,4.49-2.24,6.79-6.7,6.9l-30.17.84c-4.47.11-6.7-2.08-6.7-6.57l.67-71.23ZM723.64,81.34c0,3.93,1.51,5.89,4.52,5.89.45,0,1.12-.11,2.01-.34,1.68-.34,3.29-.81,4.86-1.43,1.56-.62,2.99-1.37,4.27-2.27,1.28-.9,2.29-2.05,3.02-3.45.73-1.4,1.09-3.06,1.09-4.97,0-4.71-1.23-7.86-3.69-9.43-2.46-1.57-5.36-2.36-8.71-2.36-4.92,0-7.37,2.47-7.37,7.41v10.94Z"/><path class="cls-2" d="M543.16,221.33c2.47,3.59,4.1,3.26,4.88-1.01l7.75-44.45c.9-4.49,3.54-6.57,7.91-6.23l33.68,2.19c4.49.34,6.4,2.69,5.72,7.07l-16.33,104.4c-.67,4.6-3.26,6.96-7.75,7.07l-19.2.84c-4.6.22-8.31-1.4-11.11-4.88l-20.54-24.92c-2.92-3.59-5.39-3.31-7.41.84l-11.11,21.55c-2.02,4.04-5.28,6.06-9.77,6.06l-25.26.17c-4.38,0-7.02-2.19-7.91-6.57l-13.98-79.31c-.67-4.15-2.98-5.39-6.9-3.7-3.93,1.68-6.06.45-6.4-3.7l-1.35-21.05c-.34-4.49,1.74-6.96,6.23-7.41l38.73-3.87c4.38-.45,7.01,1.52,7.91,5.89l9.6,50.51c.78,4.27,2.41,4.6,4.88,1.01l10.27-14.99c2.13-3.14,5.11-4.71,8.92-4.71s6.79,1.57,8.92,4.71l9.6,14.48Z"/><path class="cls-2" d="M608.32,182.43c0-16.72,9.6-25.09,28.79-25.09s28.62,8.36,28.62,25.09-9.54,25.26-28.62,25.26-28.79-8.42-28.79-25.26ZM615.05,290.03c-4.38,0-6.51-2.24-6.4-6.74l2.53-63.82c.11-4.49,2.47-6.73,7.07-6.73l36.2.51c4.49,0,6.79,2.25,6.9,6.73l2.19,63.99c.11,4.49-2.08,6.74-6.57,6.74l-41.93-.67Z"/><path class="cls-2" d="M711.03,208.02c2.92-3.25,2.19-4.66-2.19-4.21l-24.92,2.86c-4.49.45-7.13-1.46-7.91-5.73l-4.55-23.41c-.9-4.38.95-6.68,5.56-6.9l88.74-4.72c4.38-.11,6.4,2.02,6.06,6.4l-2.02,23.41c-.34,4.49-2.02,8.42-5.05,11.79l-32.83,37.55c-3.03,3.37-2.25,4.71,2.36,4.04l30.81-4.55c4.6-.67,6.96,1.24,7.07,5.72l1.01,30.98c.22,4.6-1.91,6.96-6.4,7.07l-84.86,4.38c-4.49.11-6.79-2.02-6.9-6.4l-1.01-29.64c-.11-4.38,1.35-8.31,4.38-11.79l32.67-36.88Z"/><path class="cls-2" d="M796.06,216.95c1.01-4.27-.67-6.4-5.05-6.4h-6.06c-4.38,0-5.95-2.08-4.71-6.23l6.73-22.4c1.23-4.15,4.15-6.23,8.76-6.23l63.65.84c4.38,0,7.18,2.25,8.42,6.74l25.93,98.84c1.12,4.38-.56,6.63-5.05,6.74l-26.44,1.01c-4.49.11-7.35-2.02-8.59-6.4l-3.37-12.46c-1.24-4.49-4.1-6.57-8.59-6.23l-7.41.51c-4.49.34-7.3,2.64-8.42,6.9l-2.69,9.93c-1.12,4.38-3.93,6.57-8.42,6.57l-29.8.34c-4.38,0-6.06-2.19-5.05-6.57l16.17-65.5ZM837.39,239.3c7.75,0,10.87-2.5,9.37-7.49l-3.32-17.51c-.27-1.44-.88-2.85-1.93-4.14-2.47-3.04-5.04-3.28-7.7-.73-1.62,1.55-2.51,3.36-2.86,5.2l-3.25,17.18c-1.51,4.99,1.72,7.49,9.69,7.49Z"/><path class="cls-2" d="M901.98,215.26c-.11-3.37-1.85-5.05-5.22-5.05s-5.39-1.63-5.72-4.88l-1.85-21.89c-.34-4.49,1.68-6.96,6.06-7.41l52.03-5.56c5.72-.67,11.93-.62,18.61.17,6.68.79,12.91,2.47,18.69,5.05,5.78,2.58,10.58,6.29,14.4,11.11,3.81,4.83,5.73,10.94,5.73,18.35,0,8.76-1.68,15.77-5.05,21.05-3.37,5.28-8.59,9.54-15.66,12.8-4.04,1.8-4.44,4.15-1.18,7.07l21.72,19.36c3.37,3.03,3.2,5.84-.51,8.42l-24.92,17.17c-3.82,2.58-6.96,2.02-9.43-1.68l-21.38-30.81c-2.58-3.81-3.87-3.42-3.87,1.18v22.73c0,4.49-2.25,6.9-6.74,7.24l-27.11,1.85c-4.49.34-6.79-1.74-6.9-6.23l-1.68-70.05ZM944.41,218.11c0,2.44,2.03,4.4,4.47,4.29.88-.04,1.77-.09,2.69-.15,2.53-.17,4.91-.62,7.16-1.35,2.24-.73,4.1-1.88,5.56-3.45,1.46-1.57,2.19-3.81,2.19-6.74,0-1.68-.34-3.03-1.01-4.04-.67-1.01-1.57-1.77-2.69-2.27-1.12-.51-2.33-.81-3.62-.93-1.29-.11-2.61-.17-3.96-.17-1.8,0-3.59.11-5.39.34-1.06.13-2.11.27-3.17.4-1.27.16-2.22,1.24-2.22,2.51v11.55Z"/><path class="cls-2" d="M1019.68,212.91c-2.36.45-4.1.31-5.22-.42-1.12-.73-1.8-2.16-2.02-4.29l-3.54-27.95c-.45-4.49,1.52-6.9,5.89-7.24l39.06-2.53c4.6-.22,9.4-.11,14.4.34,4.99.45,9.79.95,14.4,1.52,6.73.9,12.94,2.86,18.61,5.89,5.67,3.03,10.52,6.85,14.57,11.45,4.04,4.6,7.18,9.88,9.43,15.83,2.24,5.95,3.37,12.35,3.37,19.2,0,10.89-1.85,20.43-5.56,28.62-3.7,8.2-8.81,15.01-15.32,20.46-6.51,5.45-14.2,9.51-23.07,12.21-8.87,2.69-18.47,4.04-28.79,4.04h-26.27c-4.49,0-6.68-2.24-6.57-6.74l1.85-65.16c0-1.23-.23-2.44-.67-3.62-.45-1.18-1.46-1.77-3.03-1.77-.67,0-1.18.06-1.52.17ZM1098.39,231.79c1.63-1.31,1.63-3.81,0-5.12-3.67-2.94-7.89-5.12-12.18-6.63-.65-.22-1.31-.42-1.98-.61-1.24-.35-2.14-1.39-2.35-2.67-1.27-7.78-3.83-15.31-7.87-22.1-1.28-2.15-4.39-2.15-5.67,0-4.03,6.79-6.6,14.32-7.87,22.1-.2,1.24-1.06,2.29-2.27,2.64-5.07,1.49-9.88,3.88-14.1,7.2-1.7,1.34-1.7,3.89,0,5.23,4.25,3.34,9.08,5.74,14.19,7.23,1.21.35,2.07,1.4,2.27,2.64.38,2.35.84,4.67,1.42,6.95,1.46,5.29,3.48,10.58,6.4,15.37,1.26,2.08,4.32,2.08,5.58,0,2.91-4.79,4.94-10.08,6.4-15.37.58-2.28,1.05-4.6,1.42-6.94.2-1.27,1.11-2.32,2.36-2.67.7-.19,1.39-.4,2.07-.64,4.29-1.51,8.51-3.69,12.18-6.63Z"/><path class="cls-2" d="M383.36,278.91c-4.16,2.88-8.6,5.37-13.2,7.44-17.53,7.77-38.58,9.45-56.77,2.78-8.59-3.17-17.52-8.74-21.28-17.48-1.02-2.43-1.56-4.9-1.73-7.39,20.67-9.54,36.3-27.43,43.68-50.83.48-1.58.91-3.17,1.33-4.74,3.38-.92,6.82-1.5,10.19-1.9,5.55-.65,11.18-.74,16.75-.67,2.68.06,5.34.2,8.02.26,1.47.01,3.26.42,4.52-.5,2.25-1.7,1.37-5.43-1.43-5.84-7.64-2.05-15.64-3.62-23.68-4.16,1.38-3.28,3.41-6.38,6.21-8.58,1.54-1.19,3.25-2.07,5.07-2.76.9-.35,2.16-.44,2.94-.89,1.38-.85,3.3-4.24-.07-3.77-5.24.12-9.92,2.25-13.7,5.78-1.76,1.63-3.24,3.49-4.68,5.42-.89,1.18-2.52,2.77-2.62,4.3-.01.12.01.22.04.32-1.65.04-3.3.12-4.91.23,3.48-23.57-.05-48.43-8.79-70.59,2.36.77,4.74,1.58,7.04,2.51,3.87,1.53,7.68,3.21,11.47,4.87,2.18,6.82,3.12,13.93,3.99,21.04.45,3.57.9,7.12,1.49,10.66.02.04.02.1.01.13.64,3.64,3.34,11.55,8.08,6.06.69-.79,1.02-2.03,1.17-3.45,5.7,1.9,11.19,4.27,16.41,7.41,18.32,11.03,30.7,29.72,31.64,51.3.95,21.46-9.73,40.95-27.19,53.07Z"/><path class="cls-2" d="M292.98,244.79c-6.03,4.31-12.9,7.3-20.08,9.02-.47.11-.95.24-1.42.34-1.1.24-2.19.43-3.29.58,1.64-4.5,2.86-9.25,3.58-14.18,3.76-25.37-2.46-52.41-14.1-74.98-11.35-22.03-26.01-44.23-48.68-55.8-3.11-1.6-6.41-2.99-9.77-3.97-.85-.46-1.58.87-.73,1.33,12.09,10.32,23.71,21.42,31.45,35.49,9.66,17.64,19.88,35.94,23.5,55.98,5.05,27.23,4.72,62.8-24.32,76.41-23.67,11.12-65.9,5.06-77.61-21.37-3.11-6.97-2.61-14.72.3-21.68,1.45-3.47,3.44-6.73,5.66-9.77.24-.31.46-.6.7-.91,2.55,3.21,5.31,6.24,8.3,9-.97,3.83-1.53,7.8-1.16,11.75.22,2.51.84,4.95,1.78,7.32.48,1.22,1.02,2.59,1.78,3.72.22.33.39.94.7,1.21,1.6,1.35,5.18.79,3.6-2.03-2.46-4.37-3.03-9.13-1.9-13.97.25-1.11.63-2.14,1-3.17,1.31.97,2.62,1.91,3.97,2.77,7.03,4.47,15.2,7.86,23.66,7.75,1.33.49,2.06-1.52.77-2.02-10.56-9.45-21.41-18.21-30.27-29.38-8.1-10.15-14.82-21.43-20-33.34-2.85-6.57-5.36-13.36-7.26-20.26-.22-2.35-3.85-1.99-3.61.37-1.41,17.07,3.01,35.18,11.92,50.43,0,.03-.04.02-.05.04-9.68,10.17-15.03,22.39-14.94,34.5-8.62-5.18-17.5-9.9-24.77-17.01-1.8-2.56-5.98.21-4.07,2.91,1.78,3.97,4.1,7.71,6.85,11.11-1.73-.39-3.47-.84-5.14-1.42-2.7-.93-5.3-2.06-7.75-3.51-1.27-.74-2.44-1.91-3.74-2.56-.34-.16-.69-.81-1.03-.87-.91-.12-3.32.33-1.66,1.85,4.38,4.24,9.09,8.36,14.44,11.3,2.62,1.42,5.42,2.59,8.33,3.2,1.03.22,2.8.25,4.5.05.52.43,1.03.87,1.56,1.28,3.52,2.73,7.35,5.05,11.41,6.87,1.29.59,2.7,1.36,4.17,1.89,2.12,5.05,5.35,9.92,9.83,14.41,1.11,1.08,2.24,2.11,3.38,3.11-1.91,2.71-3.71,5.44-6.07,7.86-7.38,7.51-17.15,11.69-27.65,11.84-20.6.35-40.37-11.33-55.36-24.56-29.24-25.71-51.64-71.67-33.68-109.98,1.98-4.25,4.38-8.3,7.05-12.15,5.99-8.57,13.09-16.92,22.07-22.46,6.38-3.91,13.27-5.7,20.44-6.55-4.29,15.12-4.74,31.49-1.98,46.64,0,.09.03.17.04.23-1.24,2.56-1.83,6.03-2.38,8.38-1.68,7.19-1.96,14.71-.92,22.04.58,4.05,1.58,8.05,2.9,11.91.67,1.96,1.44,3.88,2.29,5.76.26.56.74,2.18,1.26,2.61.74.67,3.97,1.76,2.62-.86-6.06-11.43-6.01-24.94-2.58-37.21,3.15,9.63,8.02,18.76,15.35,25.62l2.55,1.76,1.53.68c.82.45,1.15.21,1.02-.7.14-5.51-2.26-11.24-3.58-16.52-1.4-5.68-2.61-11.37-3.42-17.14-1.62-11.13-1.93-22.5-.6-33.69,2.51-21.58,11.83-45.5,33.02-54.97,5.66-2.54,12.11-3.87,18.25-4.7,3.04-.42,6.08-.48,9.15-.22,1.58.15,3.13.44,4.72.62.5.06,1.32.51,1.81.35.97-.29,3.02-1.97.68-2.61-5.52-1.89-11-3.62-16.56-4.73,1.6-3.2,3.3-6.26,5.47-9.16,10.9-14.52,28.17-22.01,45.98-23.38.95-.08,1.87-.15,2.82-.23,4.85-.32,9.63-.54,14.43-.38,4.33.1,8.63.51,12.97,1.36,4.93.97,9.82,2.39,14.48,4.28,2.37.99,4.7,2.02,6.97,3.22.88.45,2.29,1.55,3.23,1.76,2.53.56,6.31-2.03,2.9-4.32-7.02-5.76-14.85-10.16-23.09-13.26,19.26-6.27,40.15-9.28,59.21-10.98,31.39-2.8,64.87-1.39,94.6,9.94,16.57,6.3,32.33,16.51,41.28,32.23,13.03,22.65,11.37,64.12-22.15,64.42-14.91,0-29.14-4.62-43.15-9.28-11.43-3.81-24.84-9.32-37.6-10.23-4.12-7.9-9.04-15.38-14.94-22.12-6.32-7.26-15.27-16-24.99-18.17t-.04.02c4.53,6.36,10.07,11.89,14.46,18.38,4.45,6.58,8.28,13.6,11.49,20.89.46,1.03.87,2.07,1.29,3.11.81,1.99,1.58,3.99,2.3,5.98,4.63,12.73,7.56,26.09,8.69,39.57,1.09,12.91.75,27.32-2.13,40.99-1.97,9.27-5.1,18.18-9.77,26.06-3.05,5.16-6.75,9.89-11.18,13.96-1.67,1.54-3.43,2.99-5.3,4.33Z"/></g></svg>