<svg xmlns="http://www.w3.org/2000/svg" width="100" height="100" viewBox="0 0 100 100" fill="none">
  <circle cx="50" cy="50" r="50" fill="#121212"/>
  <path d="M50 15C30.67 15 15 30.67 15 50C15 69.33 30.67 85 50 85C69.33 85 85 69.33 85 50C85 30.67 69.33 15 50 15ZM50 25C63.8 25 75 36.2 75 50C75 63.8 63.8 75 50 75C36.2 75 25 63.8 25 50C25 36.2 36.2 25 50 25Z" fill="#00C2FF"/>
  <path d="M50 35C41.72 35 35 41.72 35 50C35 58.28 41.72 65 50 65C58.28 65 65 58.28 65 50C65 41.72 58.28 35 50 35ZM50 55C47.24 55 45 52.76 45 50C45 47.24 47.24 45 50 45C52.76 45 55 47.24 55 50C55 52.76 52.76 55 50 55Z" fill="#00C2FF"/>
</svg>