<svg xmlns="http://www.w3.org/2000/svg" width="100" height="100" viewBox="0 0 128 128">
  <defs>
    <linearGradient id="a" x1="10.93" y1="10.93" x2="117.07" y2="117.07" gradientUnits="userSpaceOnUse">
      <stop offset="0" stop-color="#534bb1"/>
      <stop offset="1" stop-color="#551bf9"/>
    </linearGradient>
  </defs>
  <rect width="128" height="128" rx="64" fill="url(#a)"/>
  <path d="M106.8,44.77,82.25,35a2.8,2.8,0,0,0-1.11-.23,2.86,2.86,0,0,0-2.41,1.34l-5,7.89H47.12l-5-7.89A2.85,2.85,0,0,0,39.75,34.8a2.8,2.8,0,0,0-1.11.23L14.09,44.77a2.88,2.88,0,0,0-1.64,3.68L26.53,81.9a2.87,2.87,0,0,0,2.66,1.78,2.83,2.83,0,0,0,1-.19l7.24-2.88V92.78a2.86,2.86,0,0,0,2.86,2.86h43.2a2.86,2.86,0,0,0,2.86-2.86V80.61l7.24,2.88a2.83,2.83,0,0,0,1,.19,2.87,2.87,0,0,0,2.66-1.78l14.08-33.45A2.88,2.88,0,0,0,106.8,44.77ZM77.54,81.9H45.35a2.86,2.86,0,1,1,0-5.72H77.54a2.86,2.86,0,1,1,0,5.72Z" fill="#fff"/>
</svg>