<svg width="192" height="192" viewBox="0 0 192 192" fill="none" xmlns="http://www.w3.org/2000/svg">
  <rect width="192" height="192" rx="24" fill="#3b82f6"/>
  <rect x="16" y="16" width="160" height="160" rx="16" fill="#1e40af"/>
  
  <!-- Pixel Art Style P -->
  <rect x="40" y="48" width="8" height="8" fill="#ffffff"/>
  <rect x="48" y="48" width="8" height="8" fill="#ffffff"/>
  <rect x="56" y="48" width="8" height="8" fill="#ffffff"/>
  <rect x="64" y="48" width="8" height="8" fill="#ffffff"/>
  <rect x="72" y="48" width="8" height="8" fill="#ffffff"/>
  
  <rect x="40" y="56" width="8" height="8" fill="#ffffff"/>
  <rect x="72" y="56" width="8" height="8" fill="#ffffff"/>
  
  <rect x="40" y="64" width="8" height="8" fill="#ffffff"/>
  <rect x="72" y="64" width="8" height="8" fill="#ffffff"/>
  
  <rect x="40" y="72" width="8" height="8" fill="#ffffff"/>
  <rect x="48" y="72" width="8" height="8" fill="#ffffff"/>
  <rect x="56" y="72" width="8" height="8" fill="#ffffff"/>
  <rect x="64" y="72" width="8" height="8" fill="#ffffff"/>
  
  <rect x="40" y="80" width="8" height="8" fill="#ffffff"/>
  
  <rect x="40" y="88" width="8" height="8" fill="#ffffff"/>
  
  <rect x="40" y="96" width="8" height="8" fill="#ffffff"/>
  
  <!-- Pixel Art Style X -->
  <rect x="96" y="48" width="8" height="8" fill="#ffffff"/>
  <rect x="128" y="48" width="8" height="8" fill="#ffffff"/>
  
  <rect x="104" y="56" width="8" height="8" fill="#ffffff"/>
  <rect x="120" y="56" width="8" height="8" fill="#ffffff"/>
  
  <rect x="112" y="64" width="8" height="8" fill="#ffffff"/>
  
  <rect x="104" y="72" width="8" height="8" fill="#ffffff"/>
  <rect x="120" y="72" width="8" height="8" fill="#ffffff"/>
  
  <rect x="96" y="80" width="8" height="8" fill="#ffffff"/>
  <rect x="128" y="80" width="8" height="8" fill="#ffffff"/>
  
  <!-- Market text -->
  <text x="96" y="128" font-family="monospace" font-size="14" font-weight="bold" fill="#ffffff">MARKET</text>
  
  <!-- Decorative pixels -->
  <rect x="48" y="120" width="4" height="4" fill="#60a5fa"/>
  <rect x="56" y="124" width="4" height="4" fill="#60a5fa"/>
  <rect x="64" y="120" width="4" height="4" fill="#60a5fa"/>
  <rect x="72" y="124" width="4" height="4" fill="#60a5fa"/>
</svg>