<svg width="512" height="512" viewBox="0 0 512 512" fill="none" xmlns="http://www.w3.org/2000/svg">
  <rect width="512" height="512" rx="64" fill="#3b82f6"/>
  <rect x="32" y="32" width="448" height="448" rx="32" fill="#1e40af"/>
  
  <!-- Pixel Art Style P -->
  <rect x="96" y="128" width="24" height="24" fill="#ffffff"/>
  <rect x="120" y="128" width="24" height="24" fill="#ffffff"/>
  <rect x="144" y="128" width="24" height="24" fill="#ffffff"/>
  <rect x="168" y="128" width="24" height="24" fill="#ffffff"/>
  <rect x="192" y="128" width="24" height="24" fill="#ffffff"/>
  
  <rect x="96" y="152" width="24" height="24" fill="#ffffff"/>
  <rect x="192" y="152" width="24" height="24" fill="#ffffff"/>
  
  <rect x="96" y="176" width="24" height="24" fill="#ffffff"/>
  <rect x="192" y="176" width="24" height="24" fill="#ffffff"/>
  
  <rect x="96" y="200" width="24" height="24" fill="#ffffff"/>
  <rect x="120" y="200" width="24" height="24" fill="#ffffff"/>
  <rect x="144" y="200" width="24" height="24" fill="#ffffff"/>
  <rect x="168" y="200" width="24" height="24" fill="#ffffff"/>
  
  <rect x="96" y="224" width="24" height="24" fill="#ffffff"/>
  
  <rect x="96" y="248" width="24" height="24" fill="#ffffff"/>
  
  <rect x="96" y="272" width="24" height="24" fill="#ffffff"/>
  
  <!-- Pixel Art Style X -->
  <rect x="256" y="128" width="24" height="24" fill="#ffffff"/>
  <rect x="352" y="128" width="24" height="24" fill="#ffffff"/>
  
  <rect x="280" y="152" width="24" height="24" fill="#ffffff"/>
  <rect x="328" y="152" width="24" height="24" fill="#ffffff"/>
  
  <rect x="304" y="176" width="24" height="24" fill="#ffffff"/>
  
  <rect x="280" y="200" width="24" height="24" fill="#ffffff"/>
  <rect x="328" y="200" width="24" height="24" fill="#ffffff"/>
  
  <rect x="256" y="224" width="24" height="24" fill="#ffffff"/>
  <rect x="352" y="224" width="24" height="24" fill="#ffffff"/>
  
  <!-- Market text -->
  <text x="256" y="340" font-family="monospace" font-size="36" font-weight="bold" fill="#ffffff">MARKET</text>
  
  <!-- Decorative pixels -->
  <rect x="120" y="320" width="12" height="12" fill="#60a5fa"/>
  <rect x="144" y="332" width="12" height="12" fill="#60a5fa"/>
  <rect x="168" y="320" width="12" height="12" fill="#60a5fa"/>
  <rect x="192" y="332" width="12" height="12" fill="#60a5fa"/>
  
  <rect x="120" y="360" width="12" height="12" fill="#60a5fa"/>
  <rect x="144" y="372" width="12" height="12" fill="#60a5fa"/>
  <rect x="168" y="360" width="12" height="12" fill="#60a5fa"/>
  <rect x="192" y="372" width="12" height="12" fill="#60a5fa"/>
</svg>